<svg id="Layer_5" data-name="Layer 5" xmlns="http://www.w3.org/2000/svg" viewBox="0 0 50 50">
    <defs>
        <style>
            .ae-cls-1{fill:#1e1d57}.ae-cls-2{fill:#9595c9}
        </style>
    </defs>
    <path class="ae-cls-1" d="M0 42.11V7.78c.18-.08.13-.26.15-.39A8.91 8.91 0 0 1 9.08 0h31.83a9.57 9.57 0 0 1 1.51.1A9 9 0 0 1 50 9.23v31.52A8.91 8.91 0 0 1 41.12 50H8.9a8.88 8.88 0 0 1-8.67-7 2.3 2.3 0 0 0-.23-.89Zm24.29-6.87h2.05c.32 0 .42-.13.32-.43s-.2-.56-.29-.85q-3.59-10.29-7.16-20.6c-.1-.26-.14-.52-.54-.52h-5c-.3 0-.4.1-.41.4a6.52 6.52 0 0 1-.38 2.05c-.28.78-.54 1.57-.81 2.36L6.32 34.54c-.23.67-.22.7.48.7h3.27a.7.7 0 0 0 .79-.61c.43-1.45.91-2.89 1.34-4.33.09-.3.21-.42.54-.42h6.93c.35 0 .46.13.56.44.49 1.49 1 3 1.48 4.44a.56.56 0 0 0 .63.47c.66-.01 1.3.01 1.95.01ZM37.4 28c1.46-.09 3.17.17 4.88-.05.27 0 .46-.08.49-.41a12.72 12.72 0 0 0 0-3.54c-.45-2.49-1.58-4.47-4-5.45a8 8 0 0 0-3.58-.55 7.06 7.06 0 0 0-5.75 3.19 10.4 10.4 0 0 0-1.35 8.55 7.05 7.05 0 0 0 4.06 5.12 11.92 11.92 0 0 0 9 0c.31-.11.33-.37.33-.64v-2.86c0-.43-.12-.43-.47-.32a11.09 11.09 0 0 1-4.71.58 3.93 3.93 0 0 1-3.76-3.2c-.07-.34 0-.46.35-.45 1.4.03 2.83.03 4.51.03Z"/>
    <path class="ae-cls-2" d="M24.29 35.24h-1.95a.56.56 0 0 1-.63-.47c-.48-1.48-1-3-1.48-4.44-.1-.31-.21-.44-.56-.44h-6.93c-.33 0-.45.12-.54.42-.43 1.44-.91 2.88-1.34 4.33a.7.7 0 0 1-.79.61H6.8c-.7 0-.71 0-.48-.7l5.73-16.88c.27-.79.53-1.58.81-2.36a6.52 6.52 0 0 0 .38-2.05c0-.3.11-.41.41-.4h5c.4 0 .44.26.54.52Q22.78 23.67 26.37 34c.09.29.19.57.29.85s0 .43-.32.43c-.68-.05-1.34-.04-2.05-.04ZM16.18 16.7c-.88 3-1.71 5.83-2.55 8.67-.06.21-.06.31.19.31h5ZM37.4 28h-4.54c-.38 0-.42.11-.35.45a3.93 3.93 0 0 0 3.76 3.2A11.09 11.09 0 0 0 41 31c.35-.11.48-.11.47.32v2.86c0 .27 0 .53-.33.64a11.92 11.92 0 0 1-9 0 7.05 7.05 0 0 1-4.06-5.12 10.4 10.4 0 0 1 1.35-8.55A7.06 7.06 0 0 1 35.19 18a8 8 0 0 1 3.59.52c2.41 1 3.54 3 4 5.45a12.72 12.72 0 0 1 0 3.54c0 .33-.22.37-.49.41-1.72.21-3.43-.05-4.89.08Zm-2-3.15h2.59c.37 0 .59-.13.55-.6a2.85 2.85 0 0 0-1.94-2.4 3.14 3.14 0 0 0-4.08 2.73c0 .31.11.28.29.28Z"/>
    <path class="ae-cls-1" d="m16.18 16.7 2.67 9h-5c-.25 0-.25-.1-.19-.31.81-2.86 1.64-5.71 2.52-8.69ZM35.35 24.81h-2.59c-.18 0-.33 0-.29-.28a3.14 3.14 0 0 1 4.08-2.73 2.85 2.85 0 0 1 1.94 2.4c0 .47-.18.59-.55.6h-2.59Z"/>
</svg>