<svg id="Layer_3" data-name="Layer 3" xmlns="http://www.w3.org/2000/svg" viewBox="0 0 50 50">
    <defs>
        <style>
            .ai-cls-1{fill:#341211}.ai-cls-2{fill:#f8991d}
        </style>
    </defs>
    <path class="ai-cls-1" d="M0 42.22V7.89c.1 0 .09-.12.1-.2A9 9 0 0 1 9.23 0c10.52.05 21 0 31.54 0a10.28 10.28 0 0 1 1.66.1A9 9 0 0 1 50 9.19v31.62a9.15 9.15 0 0 1-.15 1.74A8.84 8.84 0 0 1 41.11 50H8.89a8.86 8.86 0 0 1-8.74-7.4c-.02-.13.03-.31-.15-.38Zm28.4-6.91h1.91c.59 0 .63 0 .43-.63-.71-2-1.42-4.07-2.12-6.11Q26 20.95 23.35 13.32c-.1-.27-.15-.53-.54-.52h-5c-.29 0-.4.12-.4.42a6.36 6.36 0 0 1-.41 2.24c-.47 1.35-.92 2.7-1.38 4.06l-5.1 15c-.25.72-.22.75.53.75h3.27a.61.61 0 0 0 .68-.47c.44-1.47.92-2.92 1.37-4.38a.5.5 0 0 1 .58-.43h6.88a.52.52 0 0 1 .58.43c.46 1.43 1 2.84 1.41 4.26.15.47.35.69.86.65s1.14-.02 1.72-.02Zm9.3-8.48v-8c0-.39-.12-.53-.51-.52h-3.65c-.38 0-.53.11-.52.51v16c0 .4.13.57.54.56h3.51c.51 0 .64-.16.63-.66-.01-2.65 0-5.27 0-7.89Zm.29-13a2.46 2.46 0 0 0-2.52-2.68 2.58 2.58 0 0 0-2.66 2.63 2.59 2.59 0 1 0 5.18 0Z"/>
    <path class="ai-cls-2" d="M28.4 35.31h-1.75c-.58 0-.71-.18-.86-.65-.45-1.42-.95-2.83-1.41-4.26a.52.52 0 0 0-.58-.4h-6.88a.5.5 0 0 0-.58.43c-.45 1.46-.93 2.91-1.37 4.38a.61.61 0 0 1-.69.52h-3.27c-.75 0-.78 0-.53-.75l5.1-15c.46-1.36.91-2.71 1.38-4.06a6.36 6.36 0 0 0 .42-2.24c0-.3.11-.42.4-.42h5c.39 0 .44.25.54.52q2.68 7.56 5.3 15.19c.7 2 1.41 4.07 2.12 6.11.2.59.16.63-.43.63Zm-8.08-18.5c-.07.2-.1.27-.12.35-.8 2.7-1.6 5.41-2.41 8.11-.11.37 0 .41.33.41h4.39c.4 0 .46-.09.34-.47-.59-1.9-1.15-3.81-1.72-5.72-.26-.85-.51-1.7-.81-2.68ZM37.7 26.83v7.85c0 .5-.12.67-.63.66h-3.51c-.41 0-.54-.16-.54-.56v-16c0-.4.14-.51.52-.51h3.65c.39 0 .51.13.51.52v8.04ZM38 13.78a2.59 2.59 0 1 1-5.18 0 2.58 2.58 0 0 1 2.66-2.63A2.46 2.46 0 0 1 38 13.78Z"/>
    <path class="ai-cls-1" d="M20.32 16.81c.3 1 .55 1.83.81 2.68.57 1.91 1.13 3.82 1.72 5.72.12.38.06.48-.34.47h-4.39c-.31 0-.44 0-.33-.41.81-2.7 1.61-5.41 2.41-8.11.02-.08.05-.16.12-.35Z"/>
</svg>