
<svg data-name="Layer 4" xmlns="http://www.w3.org/2000/svg" viewBox="0 0 50 50">
    <path d="M48.06 15.38a.34.34 0 0 1 .24.26c.42 1.79 1.12 3.49 1.38 5.33a26.54 26.54 0 0 1 .24 6 25.3 25.3 0 0 1-1.21 6A24.86 24.86 0 0 1 27.06 49.9a24.95 24.95 0 0 1-20.88-8.47A24.75 24.75 0 0 1 .42 29.49a22.63 22.63 0 0 1-.37-5.75 25 25 0 0 1 2.27-9 25.88 25.88 0 0 1 4.59-6.81A24.81 24.81 0 0 1 20.9.37 24.24 24.24 0 0 1 26.34 0 24.53 24.53 0 0 1 34 1.69 2.43 2.43 0 0 1 35.27 3a2.4 2.4 0 0 1-.09 2.15 7.19 7.19 0 0 1-1.76 1.63 21.61 21.61 0 0 1-6 1.95 52.12 52.12 0 0 0-10 2.76 15.2 15.2 0 0 0-4 2.22c-.18 0-.29.12-.42.21a17.68 17.68 0 0 0 8.73 32.43A17.39 17.39 0 0 0 36 40.16 13.41 13.41 0 0 0 38.59 36c.07-.12.16-.24.22-.37a41.78 41.78 0 0 0 3.66-13.71c.24-2.16.26-4.37 1.14-6.43a2.84 2.84 0 0 1 1.56-1.43 2.63 2.63 0 0 1 2.89 1.32Z" fill="#e0e0df"/>
    <path d="M35.18 5.12A2.4 2.4 0 0 0 35.27 3 17.8 17.8 0 0 1 47.9 14.55a1.41 1.41 0 0 1 .16.83 2.63 2.63 0 0 0-2.89-1.3 15.75 15.75 0 0 0-4.57-6.27 17.3 17.3 0 0 0-5.42-2.69Z" fill="#232425"/>
    <path d="M35.18 5.12a17.3 17.3 0 0 1 5.42 2.69 15.75 15.75 0 0 1 4.57 6.27 2.84 2.84 0 0 0-1.56 1.43 2.76 2.76 0 0 0-1.77 1.1 14.68 14.68 0 0 0-2.22 4.44 27.88 27.88 0 0 1-3.13 6.51A9.62 9.62 0 0 1 27 32a10 10 0 0 1-8.53-12.23 11 11 0 0 1 5.43-6.87 57.41 57.41 0 0 1 6-2.89 12.15 12.15 0 0 0 2.9-1.71 1.57 1.57 0 0 0 .62-1.55 7.19 7.19 0 0 0 1.76-1.63Z" fill="#3f4da1"/>
    <path d="M38.59 36A13.41 13.41 0 0 1 36 40.16a17.39 17.39 0 0 1-14.36 6.16 17.68 17.68 0 0 1-8.74-32.43c.13-.09.24-.22.42-.21a1.59 1.59 0 0 1-.18.82 16.59 16.59 0 0 0-.77 7.84 16.91 16.91 0 0 0 6.37 11.19c5.76 4.54 12.12 5.33 18.94 2.78.32-.11.57-.31.91-.31Z" fill="#616262"/>
    <path d="M38.59 36c-.34 0-.61.18-.91.29-6.82 2.55-13.18 1.76-18.94-2.78a16.91 16.91 0 0 1-6.37-11.19 16.59 16.59 0 0 1 .77-7.84 1.59 1.59 0 0 0 .18-.82 15.2 15.2 0 0 1 4-2.22A52.12 52.12 0 0 1 27.39 8.7a21.61 21.61 0 0 0 6-1.95 1.57 1.57 0 0 1-.59 1.55 12.15 12.15 0 0 1-2.94 1.7 57.41 57.41 0 0 0-6 2.89 11 11 0 0 0-5.39 6.84A10 10 0 0 0 27 32a9.62 9.62 0 0 0 9.45-4.41 27.88 27.88 0 0 0 3.13-6.51 14.68 14.68 0 0 1 2.22-4.44 2.76 2.76 0 0 1 1.77-1.1c-.88 2.06-.9 4.27-1.14 6.43a41.78 41.78 0 0 1-3.66 13.71c-.02.1-.11.22-.18.32Z" fill="#212222"/>
</svg>