<?xml version="1.0" encoding="utf-8"?>
<!-- Generator: Adobe Illustrator 24.2.3, SVG Export Plug-In . SVG Version: 6.00 Build 0)  -->
<svg version="1.1" id="Layer_1" xmlns="http://www.w3.org/2000/svg" xmlns:xlink="http://www.w3.org/1999/xlink" x="0px" y="0px"
	 viewBox="0 0 42.7 40" style="enable-background:new 0 0 42.7 40;" xml:space="preserve">
<path d="M15.9,29.3c0,0.7-0.5,1.1-1.4,1.1s-1.4-0.4-1.4-1.1V11.9c0-0.7,0.5-1.1,1.4-1.1s1.4,0.4,1.4,1.1v6.4h1.6
	c0.2,0,0.4,0.1,0.6,0.2v-6.6c0-0.7,0.5-1.1,1.4-1.1c0.9,0,1.4,0.4,1.4,1.1v17.4c0,0.7-0.5,1.1-1.4,1.1c-0.9,0-1.4-0.4-1.4-1.1v-8.8
	c-0.1,0.1-0.3,0.2-0.6,0.2h-1.6V29.3z"/>
<path d="M33.3,26.1c0,0.7-0.5,1.1-1.4,1.1s-1.4-0.4-1.4-1.1v-2.9c0-0.1,0-0.1,0-0.2c0,0-0.1-0.1-0.2-0.1h-6.1
	c-0.6,0-0.9-0.4-0.9-1.2c0-0.8,0.3-1.2,0.9-1.2h7.6c0.6,0,0.9,0.1,1.1,0.4c0.2,0.3,0.3,0.6,0.3,1V26.1z M28.7,30.9
	c-0.6,0-0.9-0.1-1.1-0.4c-0.2-0.3-0.3-0.6-0.3-1v-4.3c0-0.7,0.5-1.1,1.4-1.1c0.9,0,1.4,0.4,1.4,1.1v3.1c0,0.1,0,0.1,0,0.2
	s0.1,0.1,0.2,0.1h10.1c0.6,0,0.9,0.4,0.9,1.2c0,0.8-0.3,1.2-0.9,1.2H28.7z M38.9,15.4c0,1.3-0.5,2.4-1.6,3.4
	c-1.1,0.9-2.4,1.4-3.9,1.4c-1.5,0-2.8-0.5-3.9-1.4c-1.1-0.9-1.6-2.1-1.6-3.4s0.5-2.5,1.6-3.4c1.1-0.9,2.4-1.4,3.9-1.4
	c1.5,0,2.8,0.5,3.9,1.4C38.3,12.9,38.9,14,38.9,15.4z M36.1,15.4c0-0.7-0.3-1.3-0.8-1.8c-0.5-0.5-1.2-0.7-1.9-0.7s-1.4,0.2-1.9,0.7
	c-0.5,0.5-0.8,1.1-0.8,1.8c0,0.7,0.3,1.3,0.8,1.8c0.5,0.5,1.2,0.7,1.9,0.7s1.4-0.2,1.9-0.7C35.9,16.6,36.1,16.1,36.1,15.4z
	 M38.1,26.1c0,0.7-0.5,1.1-1.4,1.1s-1.4-0.4-1.4-1.1v-4.4c0-0.7,0.5-1.1,1.4-1.1s1.4,0.4,1.4,1.1V26.1z"/>
<path fill="#5F9E9F" d="M12.4,25.4c0.4,0.8,0.1,1.3-0.8,1.6c-0.9,0.3-1.5,0.1-1.8-0.7l-3-6.7l-3,6.7c-0.3,0.7-0.9,1-1.8,0.7
	c-0.9-0.3-1.1-0.8-0.8-1.6l4.1-9.1l0-0.1H2.6c-0.6,0-0.9-0.4-0.9-1.2s0.3-1.2,0.9-1.2h2.8v-2.3c0-0.7,0.5-1.1,1.4-1.1
	c0.9,0,1.4,0.4,1.4,1.1v2.3h3.1c0.6,0,0.9,0.4,0.9,1.2s-0.3,1.2-0.9,1.2H8.3l0,0.1L12.4,25.4z"/>
</svg>
