<svg id="Layer_1" data-name="Layer 1" xmlns="http://www.w3.org/2000/svg" viewBox="0 0 40.11 20.35"><defs><style>.cls-1{fill:#fff;}.cls-2{fill:#5f9e9f;}</style></defs><path class="cls-1" d="M15.93,29.29c0,.73-.46,1.1-1.37,1.1s-1.37-.37-1.37-1.1V11.91c0-.74.45-1.11,1.37-1.11s1.37.37,1.37,1.11v6.41h1.61a.84.84,0,0,1,.56.18V11.91c0-.74.45-1.11,1.37-1.11s1.37.37,1.37,1.11V29.29c0,.73-.46,1.1-1.37,1.1S18.1,30,18.1,29.29V20.46a.84.84,0,0,1-.56.18H15.93Z" transform="translate(-1.05 -10.57)"/><path class="cls-1" d="M33.33,26.06c0,.74-.46,1.11-1.37,1.11s-1.37-.37-1.37-1.11v-2.9a.79.79,0,0,0,0-.17s-.08-.06-.19-.06H24.25c-.57,0-.86-.39-.86-1.17s.28-1.16.86-1.16h7.63A1.34,1.34,0,0,1,33,21a1.6,1.6,0,0,1,.31,1Zm-4.68,4.86a1.34,1.34,0,0,1-1.14-.42,1.6,1.6,0,0,1-.31-1V25.23c0-.74.46-1.11,1.37-1.11s1.37.37,1.37,1.11v3.13a.43.43,0,0,0,0,.17s.07.06.18.06H40.29q.85,0,.87,1.17c0,.77-.29,1.16-.87,1.16ZM38.86,15.37a4.37,4.37,0,0,1-1.59,3.37,5.59,5.59,0,0,1-3.87,1.42,5.71,5.71,0,0,1-3.91-1.41,4.38,4.38,0,0,1,0-6.77,5.71,5.71,0,0,1,3.91-1.41A5.63,5.63,0,0,1,37.27,12,4.36,4.36,0,0,1,38.86,15.37Zm-2.74,0a2.28,2.28,0,0,0-.8-1.76,3,3,0,0,0-3.84,0,2.33,2.33,0,0,0,0,3.51,3,3,0,0,0,3.84,0A2.27,2.27,0,0,0,36.12,15.37Zm2,10.69c0,.74-.46,1.11-1.37,1.11s-1.37-.37-1.37-1.11V21.7c0-.73.45-1.1,1.37-1.1s1.37.37,1.37,1.1Z" transform="translate(-1.05 -10.57)"/><path class="cls-2" d="M12.38,25.41c.35.79.1,1.32-.77,1.61a1.31,1.31,0,0,1-1.81-.68l-3-6.66-3,6.66A1.3,1.3,0,0,1,2,27c-.87-.29-1.13-.82-.78-1.61l4.08-9,0-.1H2.56c-.57,0-.85-.38-.86-1.16s.28-1.16.86-1.16H5.4V11.68c0-.74.45-1.11,1.37-1.11s1.37.37,1.37,1.11v2.26h3.13c.6,0,.9.39.89,1.16s-.3,1.16-.89,1.16H8.33l-.05.1Z" transform="translate(-1.05 -10.57)"/></svg>