<svg id="Layer_1" data-name="Layer 1" xmlns="http://www.w3.org/2000/svg" viewBox="0 0 50 50">
    <defs>
        <style>
            .pr-cls-1{fill:#1d1c57}.pr-cls-2{fill:#9696ca}
        </style>
    </defs>
    <path class="pr-cls-1" d="M50 8.18v33.65c0 .22-.1.45-.14.67a8.89 8.89 0 0 1-9 7.5H9.08a8.39 8.39 0 0 1-1.51-.1A9 9 0 0 1 0 40.8V9.21a10.13 10.13 0 0 1 .15-1.74A8.82 8.82 0 0 1 8.88 0h32.23a8.79 8.79 0 0 1 8.63 7c.1.37.18.78.26 1.18Zm-33.62 20h.75A18.27 18.27 0 0 0 22 27.8c5.95-1.44 6.91-8.66 4-12.15a8 8 0 0 0-6.09-2.83c-2.48-.08-5 0-7.46 0-.48 0-.59.16-.59.63V34.7c0 .49.14.63.61.62h3.27c.46 0 .64-.12.62-.62v-2.95Zm18.52-7.84c-.07-.48-.15-1-.23-1.52a.62.62 0 0 0-.7-.6H30.8c-.35 0-.45.13-.43.47.05 1.05.1 2.1.1 3.15V34.7c0 .47.13.65.61.64h3.41c.65 0 .66 0 .66-.65v-9.76A1.38 1.38 0 0 1 36 23.5l.44-.22a8.13 8.13 0 0 1 3.56-.71c.48 0 .62-.17.61-.64v-3.51c0-.4-.11-.56-.53-.54a5.56 5.56 0 0 0-2.79.78c-.86.5-1.61 1.11-2.39 1.68Z"/>
    <path class="pr-cls-2" d="M16.38 28.19v6.52c0 .5-.16.63-.62.62h-3.27c-.47 0-.61-.13-.61-.62V13.46c0-.47.11-.63.59-.63 2.49 0 5-.13 7.46 0A8 8 0 0 1 26 15.65c2.9 3.49 1.94 10.71-4 12.15a18.27 18.27 0 0 1-4.89.39ZM16.4 17v6.94a.41.41 0 0 0 .28.29 10 10 0 0 0 4.24-.43 3.34 3.34 0 0 0 2.16-3.4 3.23 3.23 0 0 0-2.38-3.17 13.48 13.48 0 0 0-4.3-.23ZM34.9 20.34c.78-.57 1.53-1.18 2.34-1.68a5.56 5.56 0 0 1 2.76-.78c.42 0 .54.14.53.54v3.51c0 .47-.13.65-.61.64a8.13 8.13 0 0 0-3.56.71l-.36.22a1.38 1.38 0 0 0-.82 1.41v9.76c0 .65 0 .65-.66.65h-3.41c-.48 0-.61-.17-.61-.64V21.82c0-1 0-2.1-.1-3.15 0-.34.08-.47.43-.47H34a.62.62 0 0 1 .7.6c.05.54.13 1.06.2 1.54Z"/>
    <path class="pr-cls-1" d="M16.4 17a13.48 13.48 0 0 1 4.31.23 3.23 3.23 0 0 1 2.38 3.17 3.34 3.34 0 0 1-2.16 3.4 10 10 0 0 1-4.24.43.41.41 0 0 1-.28-.29c-.02-2.33-.01-4.62-.01-6.94Z"/>
</svg>