<svg id="Layer_2" data-name="Layer 2" xmlns="http://www.w3.org/2000/svg" viewBox="0 0 50 50">
    <defs>
        <style>
            .ps-cls-1{fill:#071b34}.ps-cls-2{fill:#49a1da}
        </style>
    </defs>
    <path class="ps-cls-1" d="M0 41.82V8.17l.15-.72A8.89 8.89 0 0 1 9.09 0h31.83a9.43 9.43 0 0 1 1.51.1A9 9 0 0 1 50 9.2v31.59a9.23 9.23 0 0 1-.15 1.74A8.78 8.78 0 0 1 41.12 50H8.9a8.8 8.8 0 0 1-8.64-7c-.1-.37-.18-.78-.26-1.18ZM11.27 24v10.65c0 .44.11.63.57.61h3.27c.52 0 .63-.17.62-.66v-5.85c0-.65 0-.62.62-.64 1.36 0 2.74 0 4.08-.19a7.33 7.33 0 0 0 5.16-2.91 7.62 7.62 0 0 0 1.35-5.24A6.85 6.85 0 0 0 24 14.32a8.51 8.51 0 0 0-4.78-1.51c-2.44 0-4.88.06-7.32.06-.5 0-.63.16-.63.66.01 3.47 0 7 0 10.47Zm18.05 6.55V34.1a.72.72 0 0 0 .51.79 12.61 12.61 0 0 0 5.12.79 8 8 0 0 0 3.68-.85 4.82 4.82 0 0 0 2.71-4.11 4.45 4.45 0 0 0-2.38-4.51c-.88-.49-1.82-.88-2.72-1.33-.72-.35-1.44-.69-2.13-1.1a1 1 0 0 1-.45-1.08 1 1 0 0 1 .84-.79 6.28 6.28 0 0 1 1.21-.16 10 10 0 0 1 4.16.91c.48.23.61.13.61-.41v-2.91a.7.7 0 0 0-.55-.79 12.32 12.32 0 0 0-4.63-.5 8.77 8.77 0 0 0-2.34.41 4.87 4.87 0 0 0-3.57 4.25 4.62 4.62 0 0 0 2.52 4.84c1.13.64 2.35 1.12 3.53 1.69a6.26 6.26 0 0 1 1 .56 1 1 0 0 1 .46 1.08 1 1 0 0 1-.79.8 3.25 3.25 0 0 1-.42.11 7.9 7.9 0 0 1-3.71-.28c-.98-.22-1.77-.59-2.66-.92Z"/>
    <path class="ps-cls-2" d="M11.27 24V13.49c0-.5.13-.66.63-.66 2.44 0 4.88-.1 7.32-.06A8.51 8.51 0 0 1 24 14.32a6.85 6.85 0 0 1 2.94 5.49 7.62 7.62 0 0 1-1.35 5.24A7.33 7.33 0 0 1 20.42 28c-1.34.17-2.72.15-4.08.19-.61 0-.62 0-.62.64v5.85c0 .49-.1.68-.62.66h-3.27c-.46 0-.57-.17-.57-.61.02-3.59.01-7.14.01-10.73Zm4.48-3.45v3.1c0 .39.13.54.51.52h1.8a6.09 6.09 0 0 0 2.77-.71 2.83 2.83 0 0 0 1.5-1.76c.52-1.93 0-4.14-2.6-4.66a26.31 26.31 0 0 0-3.45-.2c-.4 0-.54.14-.54.55.03 1.09.01 2.15.01 3.2ZM29.32 30.59c.89.33 1.72.7 2.59 1a7.9 7.9 0 0 0 3.71.28 3.25 3.25 0 0 0 .42-.11 1 1 0 0 0 .79-.8 1 1 0 0 0-.46-1.08 6.26 6.26 0 0 0-1-.56c-1.18-.57-2.4-1.05-3.53-1.69a4.62 4.62 0 0 1-2.52-4.84 4.87 4.87 0 0 1 3.57-4.25 8.77 8.77 0 0 1 2.34-.41 12.32 12.32 0 0 1 4.63.5.7.7 0 0 1 .55.79v2.91c0 .54-.13.64-.61.41a10 10 0 0 0-4.16-.91 6.28 6.28 0 0 0-1.21.16 1 1 0 0 0-.84.79 1 1 0 0 0 .45 1.08c.69.41 1.41.75 2.13 1.1.9.45 1.84.84 2.72 1.33a4.45 4.45 0 0 1 2.38 4.51 4.82 4.82 0 0 1-2.71 4.11 8 8 0 0 1-3.68.85 12.61 12.61 0 0 1-5.12-.79.72.72 0 0 1-.51-.79v-3.1c.03-.2.06-.36.07-.49Z"/>
    <path class="ps-cls-1" d="M15.75 20.59v-3.16c0-.41.14-.57.54-.55a26.31 26.31 0 0 1 3.45.2c2.61.52 3.12 2.73 2.6 4.66a2.83 2.83 0 0 1-1.5 1.76 6.09 6.09 0 0 1-2.77.71h-1.8c-.38 0-.52-.13-.51-.52 0-1.03-.01-2.07-.01-3.1Z"/>
</svg>